<?xml version="1.0" standalone="no"?>
<!DOCTYPE svg PUBLIC "-//W3C//DTD SVG 20010904//EN"
 "http://www.w3.org/TR/2001/REC-SVG-20010904/DTD/svg10.dtd">
<svg version="1.0" xmlns="http://www.w3.org/2000/svg"
 width="704.000000pt" height="704.000000pt" viewBox="0 0 704.000000 704.000000"
 preserveAspectRatio="xMidYMid meet">
<metadata>
Created by potrace 1.14, written by Peter Selinger 2001-2017
</metadata>
<g transform="translate(0.000000,704.000000) scale(0.100000,-0.100000)"
fill="#000000" stroke="none">
<path d="M4570 5166 c-182 -56 -323 -138 -462 -272 -94 -91 -101 -102 -88
-134 7 -16 18 -31 26 -34 8 -3 14 -12 14 -21 0 -8 5 -15 10 -15 6 0 14 -8 18
-17 4 -10 25 -45 46 -77 79 -121 167 -330 192 -456 3 -14 7 -32 9 -40 37 -127
50 -582 20 -740 -2 -14 -9 -54 -15 -90 -5 -36 -12 -76 -15 -90 -4 -14 -8 -36
-11 -50 -3 -14 -14 -56 -25 -93 -25 -83 -21 -102 11 -56 13 19 28 36 32 37 4
2 8 10 8 17 0 7 4 15 8 17 8 3 82 149 80 158 0 3 8 23 19 45 11 22 28 65 38
95 10 30 20 60 24 65 3 6 6 15 7 20 2 6 13 42 27 80 13 39 24 72 24 75 1 3 6
25 13 50 12 43 14 53 24 100 3 11 7 24 10 28 3 5 8 31 12 58 3 27 8 52 10 56
3 4 7 22 9 40 3 18 7 44 10 58 3 14 7 39 10 55 3 17 7 44 11 60 3 17 7 44 8
60 2 17 7 55 11 85 4 30 8 66 10 80 1 14 7 57 11 95 11 85 11 483 1 580 -11
98 -28 194 -36 199 -3 2 -53 -10 -111 -28z"/>
<path d="M2339 5164 c-5 -14 -12 -47 -15 -72 -3 -26 -7 -58 -9 -72 -23 -170
-23 -466 0 -645 3 -22 8 -60 10 -85 3 -25 7 -58 9 -75 3 -16 8 -50 11 -75 4
-25 9 -61 12 -80 2 -19 14 -80 25 -135 11 -55 22 -116 25 -135 3 -19 10 -43
15 -53 5 -10 7 -21 4 -24 -3 -3 1 -21 9 -39 8 -19 11 -34 8 -34 -3 0 0 -7 7
-15 7 -8 10 -15 7 -15 -3 0 2 -21 10 -47 8 -27 16 -55 18 -63 4 -17 42 -125
55 -155 4 -11 16 -40 25 -65 58 -145 141 -298 181 -330 16 -14 17 -13 10 10
-4 14 -9 32 -11 40 -2 8 -10 40 -19 70 -8 30 -17 72 -20 94 -4 21 -8 41 -10
45 -2 3 -7 26 -10 51 -3 25 -8 56 -11 70 -24 131 -24 489 1 670 15 114 58 264
108 382 9 21 16 41 15 44 0 4 3 10 8 13 4 3 18 26 31 51 43 84 48 93 127 200
30 41 55 79 55 83 0 27 -288 281 -320 282 -3 0 -16 8 -30 17 -34 23 -160 71
-248 96 l-73 21 -10 -25z"/>
<path d="M3445 5088 c-124 -112 -201 -195 -284 -306 -19 -26 -47 -64 -63 -84
-15 -20 -28 -39 -28 -42 0 -3 -16 -30 -35 -60 -19 -30 -35 -59 -35 -65 0 -5
-3 -11 -7 -13 -5 -1 -19 -25 -31 -53 -13 -27 -28 -57 -33 -65 -11 -19 -15 -27
-49 -120 -15 -41 -31 -84 -35 -95 -4 -11 -9 -25 -10 -30 -2 -6 -12 -44 -23
-85 -11 -41 -24 -95 -28 -120 -4 -25 -8 -47 -9 -50 -1 -3 -5 -36 -9 -75 -5
-38 -10 -79 -12 -90 -5 -25 -5 -308 0 -355 2 -19 6 -55 10 -80 4 -25 9 -63 12
-85 3 -22 8 -43 10 -46 2 -4 6 -25 9 -48 7 -57 68 -255 111 -358 43 -105 121
-261 143 -287 9 -10 16 -21 15 -25 -2 -9 47 -85 57 -89 5 -2 9 -8 9 -14 0 -30
197 -259 337 -392 l41 -39 119 119 c65 66 137 142 158 169 22 28 42 52 46 55
3 3 25 34 50 70 24 36 47 67 50 70 3 3 9 12 12 20 4 8 21 38 38 65 65 109 145
287 207 465 8 23 17 59 25 95 2 6 6 16 10 23 5 6 6 12 3 12 -2 0 0 15 5 33 5
17 11 46 14 64 2 18 9 58 14 90 13 75 24 208 24 303 0 78 -11 250 -18 285 -3
11 -7 37 -10 57 -9 69 -55 247 -86 335 -115 324 -324 629 -585 851 -34 29 -63
52 -65 52 -3 0 -35 -28 -74 -62z"/>
<path d="M5762 4091 c-80 -99 -152 -170 -267 -259 -27 -21 -126 -82 -134 -82
-5 0 -14 -6 -20 -14 -7 -8 -26 -18 -42 -21 -16 -4 -29 -10 -29 -15 0 -5 -9
-12 -21 -15 -11 -4 -57 -28 -102 -54 -45 -26 -93 -54 -107 -62 -14 -8 -27 -16
-30 -19 -15 -15 -71 -50 -80 -50 -5 0 -10 -4 -10 -10 0 -5 -6 -10 -14 -10 -8
0 -16 -3 -18 -7 -1 -5 -35 -33 -74 -65 -189 -151 -312 -304 -458 -571 -119
-217 -230 -395 -282 -451 -6 -6 -15 -19 -20 -28 -12 -22 -124 -148 -194 -218
-90 -90 -148 -138 -218 -180 -58 -35 -64 -51 -17 -40 6 1 39 3 75 5 62 3 127
11 160 20 8 3 33 7 55 11 22 3 43 8 48 11 4 2 19 7 34 9 31 6 190 60 242 82
20 8 42 17 48 18 17 3 331 161 368 184 17 11 37 23 45 27 20 9 111 66 182 114
32 22 62 39 67 39 5 0 11 4 13 8 2 4 43 37 93 72 174 126 303 238 396 346 27
32 139 190 139 197 0 2 17 35 38 73 64 118 133 311 161 454 6 30 14 66 16 80
25 128 24 370 -2 438 -9 23 -9 22 -41 -17z"/>
<path d="M1219 4093 c0 -10 -3 -31 -7 -48 -7 -36 -6 -276 2 -325 3 -19 8 -53
11 -75 16 -98 68 -281 106 -370 7 -16 13 -32 14 -35 0 -3 16 -36 35 -75 57
-120 173 -285 266 -382 83 -85 312 -273 333 -273 5 0 11 -4 13 -9 10 -28 364
-247 553 -343 93 -47 148 -70 320 -138 96 -38 221 -70 365 -95 19 -3 78 -8
130 -11 l95 -5 -52 29 c-77 44 -137 94 -256 215 -134 137 -317 371 -317 406 0
6 -3 11 -7 11 -5 0 -13 10 -19 23 -6 12 -55 99 -109 192 -54 94 -103 179 -109
190 -85 151 -219 302 -384 434 -73 59 -256 181 -270 181 -6 0 -12 3 -14 8 -1
4 -18 15 -37 25 -18 9 -65 34 -105 55 -39 20 -72 40 -74 45 -2 4 -9 7 -16 7
-13 0 -116 65 -186 117 -61 46 -173 157 -218 216 -37 49 -61 60 -63 30z"/>
<path d="M5771 2499 c-30 -15 -89 -34 -130 -43 -92 -19 -104 -21 -303 -41
-245 -25 -269 -31 -448 -120 -52 -25 -133 -69 -180 -96 -144 -85 -400 -208
-400 -192 0 3 -6 1 -12 -4 -7 -6 -44 -21 -83 -33 -38 -12 -74 -25 -80 -29 -5
-3 -12 -6 -15 -6 -3 -1 -30 -9 -61 -18 -100 -30 -246 -58 -327 -62 -29 -1 -56
-6 -60 -10 -4 -3 -2 -6 3 -4 10 2 59 -6 144 -25 19 -5 78 -15 121 -21 180 -28
548 -27 684 1 12 2 37 7 56 10 19 3 51 9 70 14 19 5 46 11 60 14 19 4 161 46
235 70 13 4 27 9 149 59 203 82 366 184 486 306 87 88 156 197 148 237 -3 18
-6 17 -57 -7z"/>
<path d="M1190 2505 c0 -3 13 -35 30 -71 53 -116 136 -205 298 -315 56 -39
102 -67 102 -64 0 4 12 -2 28 -12 122 -83 528 -224 716 -248 21 -3 41 -7 45
-9 8 -6 100 -16 196 -22 100 -7 79 -7 220 0 193 10 294 23 470 61 41 8 53 22
18 20 -23 -1 -125 12 -218 29 -58 11 -310 91 -380 121 -16 7 -46 19 -65 27
-119 51 -202 93 -335 168 -197 112 -324 173 -355 169 -3 0 -18 5 -34 11 -16 6
-43 12 -60 15 -66 9 -133 17 -175 21 -120 10 -235 25 -291 38 -14 3 -38 8 -54
12 -15 3 -53 17 -82 30 -54 24 -74 29 -74 19z"/>
</g>
</svg>
