<?xml version="1.0" encoding="UTF-8"?>
<svg id="Layer_1" data-name="Layer 1" xmlns="http://www.w3.org/2000/svg" version="1.1" viewBox="0 0 352.38 299.04">
  <defs>
    <style>
      .cls-1 {
        stroke-width: 2px;
      }

      .cls-1, .cls-2 {
        fill: none;
      }

      .cls-1, .cls-2, .cls-3 {
        stroke: #fff;
        stroke-miterlimit: 10;
      }

      .cls-2, .cls-3 {
        stroke-width: .5px;
      }

      .cls-3 {
        fill: #fff;
      }
    </style>
  </defs>
  <g>
    <path class="cls-3" d="M176.3,67.85c-6.34,4.94-19.03,16.54-28.01,34.5-.29.58-.57,1.16-.85,1.74-12.23,25.62-12.71,55.23-2.31,81.65,2.01,5.11,4.48,10.37,7.52,15.65,7.53,13.08,16.7,22.24,23.05,27.73"/>
    <path class="cls-3" d="M172.55,229.7c-2.61.03-11.45-7.68-13.07-9.34-11.06-11.32-15.63-17.86-23.57-31.87-5.17-9.12-9.86-18.66-17.51-26.01-7.23-6.96-13.09-12.31-32.36-22.4-14.25-7.47-19.29-14.31-24.27-20.54-3.73,9.34-1.43,49.31,27.14,72.46,21.25,17.22,54.82,38.12,83.64,37.7h0Z"/>
    <path class="cls-3" d="M167.01,233.32c-1.97.48-12.87-1.54-14.84-2.1-2.92-.82-5.82-1.72-8.7-2.7-5.75-1.95-11.4-4.19-16.93-6.72-10.57-4.84-20.37-12.97-31.87-15.28-9.8-1.97-25.37-1.21-34.71-6.81,4.98,22.4,52.4,38.31,77.17,37.34,11.65-.45,18.5-.95,29.87-3.73h0Z"/>
  </g>
  <path class="cls-3" d="M138.06,178.27c-7.23-22.89-5.61-41.26-4.74-50.03.63-6.46,2.3-12.39,2.3-12.39.91-3.3,2.51-8.18,5.33-13.78,2.12-4.22,5.31-9.62,10.1-15.37-2.55-3.4-7.8-8.75-14.53-13.18-6.88-4.54-14.69-6.39-19.12-7.54-1.43,5.91-2.86,22.58-1.91,33.66,1.1,12.8,3.67,35.44,10.53,54.54,4.29,11.96,7.3,18.84,12.05,24.1h0Z"/>
  <g>
    <path class="cls-3" d="M176.15,67.91c6.34,4.94,18.5,15.75,27.47,33.71.29.58.57,1.16.85,1.74,12.23,25.62,12.71,55.23,2.31,81.65-2.01,5.11-4.48,10.37-7.52,15.65-7.53,13.08-17.3,22.79-23.65,28.28"/>
    <path class="cls-3" d="M179.15,229.76c2.61.03,11.45-7.68,13.07-9.34,11.06-11.32,15.63-17.86,23.57-31.87,5.17-9.12,9.86-18.66,17.51-26.01,7.23-6.96,13.09-12.31,32.36-22.4,14.25-7.47,19.29-14.31,24.27-20.54,3.73,9.34,1.43,49.31-27.14,72.46-21.25,17.22-54.82,38.12-83.64,37.7h0Z"/>
    <path class="cls-3" d="M184.8,232.97c1.97.48,12.87-1.54,14.84-2.1,2.92-.82,5.82-1.72,8.7-2.7,5.75-1.95,11.4-4.19,16.93-6.72,10.57-4.84,20.37-12.97,31.87-15.28,9.8-1.97,25.37-1.21,34.71-6.81-4.98,22.4-52.4,38.31-77.17,37.34-11.65-.45-18.5-.95-29.87-3.73h0Z"/>
  </g>
  <path class="cls-3" d="M213.69,177.81c7.23-22.89,5.61-41.26,4.74-50.03-.63-6.46-2.3-12.39-2.3-12.39-.91-3.3-2.51-8.18-5.33-13.78-2.12-4.22-5.31-9.62-10.1-15.37,2.55-3.4,7.8-8.75,14.53-13.18,6.88-4.54,14.69-6.39,19.12-7.54,1.43,5.91,2.86,22.58,1.91,33.66-1.1,12.8-3.67,35.44-10.53,54.54-4.29,11.96-7.3,18.84-12.05,24.1h.01Z"/>
  <line class="cls-1" x1="176.2" y1="69.38" x2="175.65" y2="227.4"/>
  <line class="cls-2" x1="175.38" y1="229.14" x2="175.66" y2="228.9"/>
  <line class="cls-2" x1="176.02" y1="67.81" x2="176.18" y2="67.93"/>
</svg>